<?xml version="1.0" encoding="utf-8"?>
<!-- Generator: Adobe Illustrator 20.1.0, SVG Export Plug-In . SVG Version: 6.00 Build 0)  -->
<svg version="1.1" id="Layer_1" xmlns="http://www.w3.org/2000/svg" xmlns:xlink="http://www.w3.org/1999/xlink" x="0px" y="0px"
	 viewBox="0 0 124 127.3" style="enable-background:new 0 0 124 127.3;" xml:space="preserve">
<style type="text/css">
	.st0{fill:#1E8CB9;}
	.st1{fill:#234083;}
	.st2{fill:#93C9D2;}
	.st3{fill:#FFFFFF;}
	.st4{fill:#3399CC;}
	.st5{fill:#33CCFF;}
	.st6{fill:#3366FF;}
	.st7{opacity:0.3;fill:#006633;}
	.st8{fill:#6633CC;}
	.st9{opacity:0.25;fill:#6633CC;}
	.st10{fill:#66CCCC;}
	.st11{fill:#0066CC;}
	.st12{fill:#FF3333;}
	.st13{fill:#FF6633;}
	.st14{fill:#999999;}
	.st15{fill:#0033CC;}
	.st16{fill:#FFCC00;}
	.st17{opacity:0.3;fill:#0033CC;}
	.st18{fill:#006633;}
	.st19{fill:#FF9999;}
	.st20{fill:#CC66CC;}
	.st21{fill:#CC9966;}
	.st22{fill:#6666CC;}
	.st23{fill:#CCCC99;}
	.st24{fill:#66CC99;}
	.st25{opacity:0.3;fill:#FF3333;}
	.st26{fill:#990000;}
	.st27{fill:#961700;}
	.st28{fill:#963D00;}
	.st29{fill:#CCCCCC;}
</style>
<g>
	<path class="st1" d="M12,106.4c-1.7,0-3.4-0.8-4.4-2.2l-5.3-6.7c-0.6-0.8-0.9-1.6-0.7-2.4c0.2-0.9,0.8-1.6,1.9-2.1l8-4.2
		c0.9-0.5,1.9-0.8,3-0.8c1.5,0,2.9,0.5,3.7,1.5l5.2,6.7c0.6,0.8,0.8,1.8,0.6,2.9c-0.2,1.1-1,2.1-2.1,2.7l-8,4.2
		C13.3,106.2,12.7,106.4,12,106.4z"/>
	<path class="st1" d="M17.8,77.1c-1.3,0-2.5-0.4-3.2-1.1L8.8,71C8.2,70.5,8,70,8,69.4c0-1,0.8-2,2.1-2.8l8.5-5.9
		c1.5-1.1,3.3-1.7,4.9-1.7c1,0,1.8,0.2,2.4,0.7l5.8,5c0.5,0.5,0.7,1.1,0.7,1.9c-0.1,1.3-1,2.6-2.3,3.6l-8.5,5.8
		C20.4,76.8,19.1,77.1,17.8,77.1z"/>
	<path class="st1" d="M23.4,48.3c-0.8,0-1.4-0.2-1.9-0.4l-6.3-3.4c-0.5-0.2-0.7-0.5-0.8-0.9c-0.1-0.9,0.8-2.3,2.2-3.4l9.1-7.5
		c2-1.8,4.7-3,6.7-3c0.5,0,0.9,0.1,1.2,0.2l6.3,3.3c0.4,0.2,0.6,0.6,0.7,1.2c0.1,1.2-0.8,2.9-2.5,4.3l-9,7.5
		C27.4,47.5,25.3,48.3,23.4,48.3z"/>
	<path class="st1" d="M55,77.9c-1.3,0-2.3-0.5-3-1.4l-5.3-6.7c-0.5-0.6-0.8-1.4-0.7-2.3c0.1-1.4,1.1-3,2.5-4.1l9.1-7.5
		c1.5-1.3,3.2-2,4.8-2c1,0,1.8,0.3,2.4,0.9l5.2,6.7c1.3,1.9,0.4,5.3-2.2,7.5l-9,7.5C57.6,77.4,56.3,77.9,55,77.9z"/>
	<path class="st1" d="M80.3,125.8c-1.5,0-2.8-1-3.5-2.7L72.6,113c-1.2-2.7-0.2-6.4,2.3-8.4l9.1-7.5c1.1-0.9,2.3-1.4,3.4-1.4
		c1.4,0,2.5,0.8,3.1,2.1l4.2,10.1c1.1,2.9-0.1,7.2-2.6,9.5l-9,7.5C82.1,125.5,81.2,125.8,80.3,125.8z"/>
	<path class="st1" d="M92.2,78.7c-1.2,0-2.2-0.6-2.8-1.7l-4.8-8.4c-1.3-2.2-0.3-5.9,2.4-8.3l9.6-9.2c1.5-1.5,3.2-2.3,4.7-2.3
		c1,0,1.8,0.4,2.3,1.2l4.7,8.4c1.3,2.4,0,6.7-2.7,9.4L96,77C94.8,78.1,93.4,78.7,92.2,78.7z"/>
	<path class="st1" d="M103.9,31.9c-0.9,0-1.6-0.3-2.1-1l-5.3-6.7c-1.4-1.7-0.3-5.4,2.4-8.3L109.1,5c1.9-2.2,4.3-3.5,6-3.5
		c0.7,0,1.2,0.2,1.6,0.7l5.2,6.7c1.3,1.9,0,6.3-2.8,9.4l-10.1,10.9C107.5,30.9,105.6,31.9,103.9,31.9z"/>
	<path class="st0" d="M32.7,94.3c-1.5,0-2.8-0.6-3.6-1.7l-5.3-6.7c-0.6-0.7-0.8-1.5-0.7-2.4c0.2-1.2,1-2.3,2.2-3.1l8.5-5.9
		c1.2-0.9,2.6-1.3,4-1.3c1.2,0,2.3,0.4,2.9,1.2l5.2,6.7c1.3,1.8,0.5,4.8-1.8,6.5l-8.5,5.8C34.8,94,33.8,94.3,32.7,94.3z"/>
	<path class="st0" d="M68.4,99.6c-1.4,0-2.6-0.7-3.3-2l-4.8-8.4c-1.3-2.1-0.4-5.5,2-7.4l9.1-7.5c1.2-1.1,2.7-1.7,4-1.7
		c1.2,0,2.2,0.5,2.8,1.5l4.7,8.4c1.3,2.4,0.2,6.3-2.4,8.5l-9,7.5C70.6,99.2,69.5,99.6,68.4,99.6L68.4,99.6z"/>
</g>
</svg>
